<svg width="753" height="559" viewBox="0 0 753 559" fill="none" xmlns="http://www.w3.org/2000/svg">
<path fill-rule="evenodd" clip-rule="evenodd" d="M395.958 377.115L500.586 307.57V145.06H493.332L395.954 204.499C387.035 209.938 366.668 210.002 357.75 204.499L260.372 145.06H253.117V307.57L357.745 377.115C366.198 382.681 387.43 382.745 395.95 377.115H395.958Z" fill="#FFA600"/>
<path fill-rule="evenodd" clip-rule="evenodd" d="M352.491 368.287V206.404L258.583 150.32V305.66L352.491 368.287ZM394.418 210.439C386.465 215.148 366.105 214.843 357.898 209.828V371.711C365.915 377.032 386.274 377.765 394.418 372.384V210.439ZM399.826 368.898L495.134 305.66V150.32L399.826 207.195V368.898Z" fill="#FFDB58"/>
<path fill-rule="evenodd" clip-rule="evenodd" d="M362.286 202.074L278.355 145.071V157.8" fill="#FFEFB3"/>
<path d="M362.286 202.074L278.355 145.071V157.8" stroke="#FFDB58" stroke-width="1.1641"/>
<path fill-rule="evenodd" clip-rule="evenodd" d="M367.077 200.862L300.985 145.073V161.002" fill="#FFEFB3"/>
<path d="M367.077 200.862L300.985 145.073V161.002" stroke="#FFDB58" stroke-width="1.1641"/>
<path fill-rule="evenodd" clip-rule="evenodd" d="M371.203 200.095L319.817 145.073V161.195" fill="#FFEFB3"/>
<path d="M371.203 200.095L319.817 145.073V161.195" stroke="#FFDB58" stroke-width="1.1641"/>
<path fill-rule="evenodd" clip-rule="evenodd" d="M376.193 200.095L333.797 145.073V160.427" fill="#FFEFB3"/>
<path d="M376.193 200.095L333.797 145.073V160.427" stroke="#FFDB58" stroke-width="1.1641"/>
<path fill-rule="evenodd" clip-rule="evenodd" d="M390.104 202.076L474.047 145.073V157.802" fill="#FFEFB3"/>
<path d="M390.104 202.076L474.047 145.073V157.802" stroke="#FFDB58" stroke-width="1.1641"/>
<path fill-rule="evenodd" clip-rule="evenodd" d="M385.314 200.862L451.385 145.073V161.002" fill="#FFEFB3"/>
<path d="M385.314 200.862L451.385 145.073V161.002" stroke="#FFDB58" stroke-width="1.1641"/>
<path fill-rule="evenodd" clip-rule="evenodd" d="M381.186 200.095L432.568 145.073V161.195" fill="#FFEFB3"/>
<path d="M381.186 200.095L432.568 145.073V161.195" stroke="#FFDB58" stroke-width="1.1641"/>
<path fill-rule="evenodd" clip-rule="evenodd" d="M376.194 200.093L418.603 145.071V160.425" fill="#FFEFB3"/>
<path d="M376.194 200.093L418.603 145.071V160.425" stroke="#FFDB58" stroke-width="1.1641"/>
<path fill-rule="evenodd" clip-rule="evenodd" d="M355.486 206.135C369.463 197.625 383.374 197.945 397.484 206.135H355.486Z" fill="#FFA600"/>
<path d="M355.486 206.135C369.463 197.625 383.374 197.945 397.484 206.135" stroke="#FFDB58" stroke-width="1.1641"/>
<path fill-rule="evenodd" clip-rule="evenodd" d="M377.428 406.85C283.784 406.85 207.456 333.479 207.456 243.463C207.456 153.448 283.784 80.0726 377.428 80.0726C471.072 80.0726 547.4 153.448 547.4 243.463C547.4 333.479 471.072 406.85 377.428 406.85ZM377.428 485.924C353.228 485.924 160.678 481.235 32.9851 557C47.2372 512.316 99.558 498.891 76.6019 500.635C43.7934 503.118 33.7503 512.772 2.08838 508.359C76.7942 468.178 144.132 453.835 226.678 437.745C165.077 393.427 125.19 322.721 125.19 243.461C125.19 109.863 238.441 1 377.424 1C516.407 1 629.658 109.863 629.658 243.461C629.658 318.581 593.788 385.886 537.64 430.478C613.3 441.511 718.041 461.648 751.614 484.636C728.179 503.301 695.942 486.475 679.204 499.071C696.804 508.358 695.847 517.461 702.925 552.401C645.439 515.072 535.249 475.903 377.42 485.924L377.428 485.924Z" stroke="#737373"/>
<path fill-rule="evenodd" clip-rule="evenodd" d="M377.428 406.85C283.784 406.85 207.456 333.479 207.456 243.463C207.456 153.448 283.784 80.0726 377.428 80.0726C471.072 80.0726 547.4 153.448 547.4 243.463C547.4 333.479 471.072 406.85 377.428 406.85ZM377.428 485.924C353.228 485.924 160.678 481.235 32.9851 557C47.2372 512.316 99.5581 498.891 76.6019 500.635C43.7934 503.118 33.7503 512.772 2.08838 508.359C76.7942 468.178 144.132 453.835 226.678 437.745C165.077 393.427 125.19 322.721 125.19 243.461C125.19 109.863 238.441 1 377.424 1C516.407 1 629.658 109.863 629.658 243.461C629.658 318.581 593.788 385.886 537.641 430.478C613.3 441.511 718.041 461.648 751.614 484.636C728.179 503.301 695.942 486.475 679.204 499.071C696.804 508.358 695.847 517.461 702.925 552.401C645.439 515.072 535.249 475.903 377.42 485.924L377.428 485.924Z" fill="#E9E3FE"/>
<path fill-rule="evenodd" clip-rule="evenodd" d="M238.837 428.514C282.336 453.051 345.79 472.664 421.558 472.748C558.262 473.872 640.503 502.641 689.397 534.35C690.295 519.663 680.858 509.209 660.546 499.1C678.881 479.488 707.554 486.314 736.042 483.722C696.495 469.38 568.24 446.831 499.033 431.626C474.676 426.269 436.838 423.332 373.205 415.816C284.675 412.878 196.685 347.907 196.685 246.046C196.685 141.681 280.811 70.3159 379.498 70.3159C478.184 70.3159 557.636 140.817 557.636 246.046C557.636 328.208 504.159 385.662 437.557 406.916C474.497 412.964 505.506 422.64 527.705 426.269C580.463 384.366 616.507 316.634 616.507 246.045C616.507 120.51 510.089 14.5891 379.498 14.5891C248.903 14.5891 136.016 120.51 136.016 246.045C136.016 320.517 179.966 386.961 238.837 428.514ZM233.893 443.893C172.957 459.53 115.792 465.232 47.5757 495.559C72.0225 495.559 58.0916 493.917 119.66 489.683C107.437 506.358 91.8874 499.878 66.7226 531.67C156.783 481.994 274.971 481.476 337.973 475.253C303.28 469.378 275.059 460.826 233.893 443.893Z" stroke="#8A70D6" stroke-width="1.4403"/>
<path fill-rule="evenodd" clip-rule="evenodd" d="M238.837 428.514C282.336 453.051 345.79 472.664 421.558 472.748C558.262 473.872 640.503 502.641 689.397 534.35C690.295 519.663 680.858 509.209 660.546 499.1C678.881 479.488 707.554 486.314 736.042 483.722C696.495 469.38 568.24 446.831 499.033 431.626C474.676 426.269 436.838 423.332 373.205 415.816C284.675 412.878 196.685 347.907 196.685 246.046C196.685 141.681 280.811 70.3159 379.498 70.3159C478.184 70.3159 557.636 140.817 557.636 246.046C557.636 328.208 504.159 385.662 437.557 406.916C474.497 412.964 505.506 422.64 527.705 426.269C580.463 384.366 616.507 316.634 616.507 246.045C616.507 120.51 510.089 14.5891 379.498 14.5891C248.903 14.5891 136.016 120.51 136.016 246.045C136.016 320.517 179.966 386.961 238.837 428.514ZM233.893 443.893C172.957 459.53 115.792 465.232 47.5757 495.559C72.0225 495.559 58.0916 493.917 119.66 489.683C107.437 506.358 91.8874 499.878 66.7226 531.67C156.783 481.994 274.971 481.476 337.973 475.253C303.28 469.378 275.059 460.826 233.893 443.893Z" fill="#8A70D6"/>
</svg>
