<svg xmlns="http://www.w3.org/2000/svg" data-name="Layer 1" viewBox="0 0 64 64" id="students"><path d="M29.5 29.5A11.5 11.5 0 1 0 18 41 11.51278 11.51278 0 0 0 29.5 29.5zM18 37a7.5 7.5 0 1 1 7.5-7.5A7.5082 7.5082 0 0 1 18 37zM57.5 12.5A11.5 11.5 0 1 0 46 24 11.5131 11.5131 0 0 0 57.5 12.5zM46 20a7.5 7.5 0 1 1 7.5-7.5A7.5082 7.5082 0 0 1 46 20zM62 34H60V29a4.89453 4.89453 0 0 0-4.76953-5H36.76953A4.89453 4.89453 0 0 0 32 29v5a2 2 0 0 0 0 4H62a2 2 0 0 0 0-4zM36 34V29a.92048.92048 0 0 1 .76953-1H55.23047A.92048.92048 0 0 1 56 29v5zM44 51H32V46a4.89412 4.89412 0 0 0-4.769-5H8.769A4.89412 4.89412 0 0 0 4 46v5H2a2.0001 2.0001 0 0 0-2 2v8a2.0001 2.0001 0 0 0 2 2H44a2.0001 2.0001 0 0 0 2-2V53A2.0001 2.0001 0 0 0 44 51zM8 46a.92014.92014 0 0 1 .769-1H27.231A.92014.92014 0 0 1 28 46v5H8zM42 59H4V55H42z"></path><path d="M46,44H38a2,2,0,0,0,0,4h8a2,2,0,0,0,0-4Z"></path><circle cx="52" cy="46" r="2"></circle></svg>